HIERARCHY
ROOT Hips
{
	OFFSET 0.000000 100.481300 0.000000
	CHANNELS 6 Xposition Yposition Zposition Xrotation Yrotation Zrotation
	JOINT Spine
	{
		OFFSET -0.279200 12.230698 -2.892100
		CHANNELS 3 Xrotation Yrotation Zrotation
		JOINT Spine1
		{
			OFFSET -0.325700 14.269203 -3.374200
			CHANNELS 3 Xrotation Yrotation Zrotation
			JOINT Spine2
			{
				OFFSET -0.372300 16.307602 -0.352600
				CHANNELS 3 Xrotation Yrotation Zrotation
				JOINT Neck
				{
					OFFSET -0.418800 17.814194 8.416900
					CHANNELS 3 Xrotation Yrotation Zrotation
					JOINT Head
					{
						OFFSET 0.000000 7.031097 3.806800
						CHANNELS 3 Xrotation Yrotation Zrotation
						JOINT HeadTop_End
						{
							OFFSET 0.000000 24.646606 12.978600
							CHANNELS 3 Xrotation Yrotation Zrotation
							End Site
							{
								OFFSET 0.000000 27.854965 0.000000
							}
						}
					}
				}
				JOINT LeftShoulder
				{
					OFFSET 16.952999 14.495407 -7.737500
					CHANNELS 3 Xrotation Yrotation Zrotation
					JOINT LeftArm
					{
						OFFSET 9.308998 -2.777710 0.208600
						CHANNELS 3 Xrotation Yrotation Zrotation
						JOINT LeftForeArm
						{
							OFFSET 29.972298 0.000000 0.000000
							CHANNELS 3 Xrotation Yrotation Zrotation
							JOINT LeftHand
							{
								OFFSET 26.026505 0.000000 0.000000
								CHANNELS 3 Xrotation Yrotation Zrotation
								JOINT LeftHandThumb1
								{
									OFFSET 12.240501 -7.147949 9.207150
									CHANNELS 3 Xrotation Yrotation Zrotation
									JOINT LeftHandThumb2
									{
										OFFSET 4.138618 -2.389435 2.389433
										CHANNELS 3 Xrotation Yrotation Zrotation
										JOINT LeftHandThumb3
										{
											OFFSET 2.726913 -1.574387 1.574386
											CHANNELS 3 Xrotation Yrotation Zrotation
											JOINT LeftHandThumb4
											{
												OFFSET 3.941010 -2.275345 2.275342
												CHANNELS 3 Xrotation Yrotation Zrotation
												End Site
												{
													OFFSET -0.005798 5.087799 0.009903
												}
											}
										}
									}
								}
								JOINT LeftHandIndex1
								{
									OFFSET 24.424698 -1.985611 5.953459
									CHANNELS 3 Xrotation Yrotation Zrotation
									JOINT LeftHandIndex2
									{
										OFFSET 6.426697 0.000000 0.000000
										CHANNELS 3 Xrotation Yrotation Zrotation
										JOINT LeftHandIndex3
										{
											OFFSET 5.337898 0.000000 0.000000
											CHANNELS 3 Xrotation Yrotation Zrotation
											JOINT LeftHandIndex4
											{
												OFFSET 4.409401 0.000000 0.000000
												CHANNELS 3 Xrotation Yrotation Zrotation
												End Site
												{
													OFFSET 0.000000 4.409363 0.014373
												}
											}
										}
									}
								}
								JOINT LeftHandMiddle1
								{
									OFFSET 23.810104 0.000000 0.000000
									CHANNELS 3 Xrotation Yrotation Zrotation
									JOINT LeftHandMiddle2
									{
										OFFSET 7.176498 0.000000 0.000000
										CHANNELS 3 Xrotation Yrotation Zrotation
										JOINT LeftHandMiddle3
										{
											OFFSET 6.774902 0.000000 0.000000
											CHANNELS 3 Xrotation Yrotation Zrotation
											JOINT LeftHandMiddle4
											{
												OFFSET 5.403328 0.000000 0.000000
												CHANNELS 3 Xrotation Yrotation Zrotation
												End Site
												{
													OFFSET -0.027702 5.403244 0.017414
												}
											}
										}
									}
								}
								JOINT LeftHandRing1
								{
									OFFSET 22.908401 -0.839279 -6.020567
									CHANNELS 3 Xrotation Yrotation Zrotation
									JOINT LeftHandRing2
									{
										OFFSET 6.337502 0.000000 0.000000
										CHANNELS 3 Xrotation Yrotation Zrotation
										JOINT LeftHandRing3
										{
											OFFSET 5.779297 0.000000 0.000000
											CHANNELS 3 Xrotation Yrotation Zrotation
											JOINT LeftHandRing4
											{
												OFFSET 4.965698 0.000000 0.000000
												CHANNELS 3 Xrotation Yrotation Zrotation
												End Site
												{
													OFFSET 0.000000 4.965668 0.016186
												}
											}
										}
									}
								}
								JOINT LeftHandPinky1
								{
									OFFSET 20.037003 -1.530319 -10.950146
									CHANNELS 3 Xrotation Yrotation Zrotation
									JOINT LeftHandPinky2
									{
										OFFSET 5.254700 0.000000 0.000000
										CHANNELS 3 Xrotation Yrotation Zrotation
										JOINT LeftHandPinky3
										{
											OFFSET 4.810204 0.000000 0.000000
											CHANNELS 3 Xrotation Yrotation Zrotation
											JOINT LeftHandPinky4
											{
												OFFSET 3.647202 0.000000 0.000000
												CHANNELS 3 Xrotation Yrotation Zrotation
												End Site
												{
													OFFSET 0.000000 3.647186 0.011889
												}
											}
										}
									}
								}
							}
						}
					}
				}
				JOINT RightShoulder
				{
					OFFSET -15.141001 14.495407 -7.737500
					CHANNELS 3 Xrotation Yrotation Zrotation
					JOINT RightArm
					{
						OFFSET -9.308998 -2.777710 0.208500
						CHANNELS 3 Xrotation Yrotation Zrotation
						JOINT RightForeArm
						{
							OFFSET -29.972300 0.000000 0.000000
							CHANNELS 3 Xrotation Yrotation Zrotation
							JOINT RightHand
							{
								OFFSET -26.026505 0.000000 0.000000
								CHANNELS 3 Xrotation Yrotation Zrotation
								JOINT RightHandThumb1
								{
									OFFSET -12.240601 -7.148026 9.207092
									CHANNELS 3 Xrotation Yrotation Zrotation
									JOINT RightHandThumb2
									{
										OFFSET -4.138618 -2.389435 2.389433
										CHANNELS 3 Xrotation Yrotation Zrotation
										JOINT RightHandThumb3
										{
											OFFSET -2.726974 -1.574417 1.574421
											CHANNELS 3 Xrotation Yrotation Zrotation
											JOINT RightHandThumb4
											{
												OFFSET -3.941010 -2.275345 2.275343
												CHANNELS 3 Xrotation Yrotation Zrotation
												End Site
												{
													OFFSET 0.005814 5.087799 0.009927
												}
											}
										}
									}
								}
								JOINT RightHandIndex1
								{
									OFFSET -24.424698 -1.985657 5.953444
									CHANNELS 3 Xrotation Yrotation Zrotation
									JOINT RightHandIndex2
									{
										OFFSET -6.426697 0.000000 0.000000
										CHANNELS 3 Xrotation Yrotation Zrotation
										JOINT RightHandIndex3
										{
											OFFSET -5.337898 0.000000 0.000000
											CHANNELS 3 Xrotation Yrotation Zrotation
											JOINT RightHandIndex4
											{
												OFFSET -4.409401 0.000000 0.000000
												CHANNELS 3 Xrotation Yrotation Zrotation
												End Site
												{
													OFFSET 0.000000 4.409363 0.014408
												}
											}
										}
									}
								}
								JOINT RightHandMiddle1
								{
									OFFSET -23.810097 0.000000 0.000000
									CHANNELS 3 Xrotation Yrotation Zrotation
									JOINT RightHandMiddle2
									{
										OFFSET -7.176498 0.000000 0.000000
										CHANNELS 3 Xrotation Yrotation Zrotation
										JOINT RightHandMiddle3
										{
											OFFSET -6.774902 0.000000 0.000000
											CHANNELS 3 Xrotation Yrotation Zrotation
											JOINT RightHandMiddle4
											{
												OFFSET -5.403328 0.000000 0.000000
												CHANNELS 3 Xrotation Yrotation Zrotation
												End Site
												{
													OFFSET 0.027702 5.403244 0.017457
												}
											}
										}
									}
								}
								JOINT RightHandRing1
								{
									OFFSET -22.908302 -0.839325 -6.020576
									CHANNELS 3 Xrotation Yrotation Zrotation
									JOINT RightHandRing2
									{
										OFFSET -6.337502 0.000000 0.000000
										CHANNELS 3 Xrotation Yrotation Zrotation
										JOINT RightHandRing3
										{
											OFFSET -5.779297 0.000000 0.000000
											CHANNELS 3 Xrotation Yrotation Zrotation
											JOINT RightHandRing4
											{
												OFFSET -4.965698 0.000000 0.000000
												CHANNELS 3 Xrotation Yrotation Zrotation
												End Site
												{
													OFFSET 0.000000 4.965668 0.016226
												}
											}
										}
									}
								}
								JOINT RightHandPinky1
								{
									OFFSET -20.037003 -1.530334 -10.950259
									CHANNELS 3 Xrotation Yrotation Zrotation
									JOINT RightHandPinky2
									{
										OFFSET -5.254700 0.000000 0.000000
										CHANNELS 3 Xrotation Yrotation Zrotation
										JOINT RightHandPinky3
										{
											OFFSET -4.810204 0.000000 0.000000
											CHANNELS 3 Xrotation Yrotation Zrotation
											JOINT RightHandPinky4
											{
												OFFSET -3.647202 0.000000 0.000000
												CHANNELS 3 Xrotation Yrotation Zrotation
												End Site
												{
													OFFSET 0.000000 3.647186 0.011917
												}
											}
										}
									}
								}
							}
						}
					}
				}
			}
		}
	}
	JOINT LeftUpLeg
	{
		OFFSET 15.427100 -6.655098 0.678600
		CHANNELS 3 Xrotation Yrotation Zrotation
		JOINT LeftLeg
		{
			OFFSET 4.081073 -39.591068 13.024000
			CHANNELS 3 Xrotation Yrotation Zrotation
			JOINT LeftFoot
			{
				OFFSET -4.081074 -37.707932 -15.979700
				CHANNELS 3 Xrotation Yrotation Zrotation
				JOINT LeftToeBase
				{
					OFFSET 5.346399 -15.068900 20.645000
					CHANNELS 3 Xrotation Yrotation Zrotation
					JOINT LeftToe_End
					{
						OFFSET 2.754700 0.931300 11.300900
						CHANNELS 3 Xrotation Yrotation Zrotation
						End Site
						{
							OFFSET 0.000000 11.669021 0.000000
						}
					}
				}
			}
		}
	}
	JOINT RightUpLeg
	{
		OFFSET -15.569500 -6.655098 0.678600
		CHANNELS 3 Xrotation Yrotation Zrotation
		JOINT RightLeg
		{
			OFFSET -4.081825 -39.591045 13.023800
			CHANNELS 3 Xrotation Yrotation Zrotation
			JOINT RightFoot
			{
				OFFSET 4.081824 -37.707954 -15.979600
				CHANNELS 3 Xrotation Yrotation Zrotation
				JOINT RightToeBase
				{
					OFFSET -5.346400 -15.068900 20.645000
					CHANNELS 3 Xrotation Yrotation Zrotation
					JOINT RightToe_End
					{
						OFFSET -2.754700 0.931300 11.300900
						CHANNELS 3 Xrotation Yrotation Zrotation
						End Site
						{
							OFFSET 0.000000 11.669021 0.000000
						}
					}
				}
			}
		}
	}
}
MOTION
Frames: 6
Frame Time: 0.033333
-1.594419 79.098022 -1.306389 17.925958 -1.801618 5.033144 11.973288 1.303765 -0.875540 9.017056 0.907172 -0.446042 9.022374 0.879889 -0.458437 12.267483 3.074964 -7.464135 -29.807475 15.615126 1.172831 0.000001 -0.000002 0.000000 2.265957 -5.503506 1.606987 -32.054904 1.999409 -43.397004 0.000050 -120.002749 0.000057 4.098966 12.263307 43.944672 2.346798 -18.050699 8.747713 -1.498233 29.601463 12.459482 -2.171675 12.500529 7.939236 -0.000002 0.000001 0.000000 0.424991 -2.385879 20.197305 0.470979 2.507213 -21.274292 0.118676 1.275518 -10.631989 0.000001 -0.000001 -0.000001 0.425653 -2.387692 20.213313 0.471671 2.509015 -21.290309 0.118682 1.275523 -10.632001 0.000000 0.000001 -0.000002 0.424991 -2.385879 20.197310 0.470977 2.507214 -21.274287 0.118679 1.275516 -10.631984 0.000002 -0.000001 -0.000001 -0.991103 1.413190 20.695700 0.474945 -1.551227 -21.750942 0.118682 1.275521 -10.631992 -0.000004 0.000001 -0.000002 -0.485639 3.220621 -5.248830 -18.022415 9.982038 29.165437 0.000003 125.162260 -0.000007 -6.080385 -5.985582 -32.118258 -9.330692 13.788561 -6.175130 18.893732 -22.837137 7.898157 5.107454 -7.533403 0.625684 0.000001 -0.000000 0.000000 0.134904 1.365776 -11.281909 1.603704 -4.446510 39.649521 0.412377 -2.363181 19.793613 0.000001 -0.000003 -0.000000 0.134905 1.365776 -11.281908 1.603716 -4.446525 39.649542 0.412365 -2.363176 19.793639 -0.000000 0.000001 0.000001 0.134900 1.365774 -11.281906 1.603717 -4.446511 39.649528 0.412373 -2.363178 19.793613 0.000001 0.000003 0.000001 0.134904 1.365776 -11.281908 1.603713 -4.446517 39.649518 0.412375 -2.363173 19.793618 0.000001 -0.000001 -0.000001 -58.570436 -0.907648 12.873494 38.789112 -0.805858 1.136827 3.317017 1.056477 -15.699900 -1.918066 -0.000002 0.000004 -0.000000 0.000000 0.000000 -39.708162 -6.703175 -32.517848 43.350907 3.571243 -3.319029 -18.958976 -7.018025 25.562818 -0.881034 0.000005 -0.000001 -0.000000 0.000000 -0.000000 
-1.676545 79.410172 -1.306402 17.911951 -1.832551 4.893335 11.852619 1.362193 -0.826742 8.924467 0.936991 -0.441872 8.928870 0.917167 -0.456309 11.979155 3.115436 -7.556179 -30.282576 15.620832 1.331917 -0.000001 -0.000001 -0.000001 2.304310 -5.662813 1.178431 -31.841734 1.922151 -42.614435 0.000028 -119.782298 0.000025 5.019766 13.148902 43.779668 2.330291 -18.053238 8.747525 -1.498239 29.601470 12.459491 -2.171675 12.500528 7.939241 -0.000000 0.000000 0.000002 0.424992 -2.385877 20.197308 0.470978 2.507210 -21.274296 0.118675 1.275519 -10.631988 -0.000000 0.000001 0.000001 0.425657 -2.387692 20.213310 0.471671 2.509015 -21.290306 0.118683 1.275520 -10.631998 -0.000004 0.000001 -0.000001 0.424992 -2.385877 20.197307 0.470977 2.507215 -21.274292 0.118682 1.275515 -10.631986 0.000007 0.000002 -0.000002 -0.991096 1.413187 20.695700 0.474946 -1.551225 -21.750941 0.118682 1.275522 -10.631992 -0.000001 0.000001 -0.000000 -0.460563 3.236694 -5.120601 -17.812679 10.207925 29.042975 0.000004 124.787160 -0.000001 -6.277280 -8.221049 -32.321760 -9.330683 13.788537 -6.175122 18.893736 -22.837137 7.898162 5.107453 -7.533405 0.625684 0.000001 -0.000000 -0.000000 0.135015 1.366275 -11.286296 1.602883 -4.445527 39.638917 0.412150 -2.362550 19.788357 -0.000000 -0.000000 0.000002 0.135015 1.366275 -11.286294 1.602901 -4.445512 39.638952 0.412139 -2.362575 19.788361 0.000000 -0.000000 0.000000 0.135016 1.366277 -11.286294 1.602875 -4.445533 39.638911 0.412146 -2.362549 19.788354 -0.000002 0.000002 0.000001 0.135015 1.366275 -11.286295 1.602887 -4.445533 39.638914 0.412146 -2.362549 19.788351 -0.000002 -0.000002 -0.000001 -58.228619 -0.805762 12.968055 38.209506 -0.878501 1.233984 3.535717 1.027427 -15.712626 -1.935863 0.000001 -0.000000 -0.000000 -0.000000 -0.000000 -39.542892 -7.180789 -32.547665 42.868012 3.062162 -2.874895 -18.478788 -6.892564 25.406398 -0.851395 0.000002 0.000005 -0.000000 0.000000 0.000000 
-1.780822 79.648460 -1.310333 17.827231 -1.882225 4.783653 11.731565 1.423409 -0.746099 8.834041 0.959477 -0.427534 8.837566 0.946257 -0.443800 11.726549 3.154708 -7.688002 -30.687108 15.651204 1.449322 -0.000002 0.000000 -0.000000 2.353732 -5.878640 0.640850 -31.544587 1.904691 -41.776524 -0.000001 -119.557790 0.000001 5.823630 13.902781 43.644390 2.299758 -18.057617 8.747268 -1.498238 29.601466 12.459483 -2.171673 12.500523 7.939239 0.000001 0.000000 0.000003 0.424984 -2.385877 20.197303 0.470979 2.507214 -21.274292 0.118668 1.275521 -10.631989 0.000000 0.000000 -0.000002 0.425649 -2.387692 20.213306 0.471675 2.509013 -21.290306 0.118680 1.275523 -10.631996 -0.000003 0.000000 0.000001 0.424984 -2.385877 20.197305 0.470977 2.507217 -21.274292 0.118675 1.275514 -10.631983 -0.000002 -0.000001 0.000002 -0.991105 1.413190 20.695699 0.474946 -1.551227 -21.750949 0.118683 1.275524 -10.631990 0.000001 0.000000 -0.000001 -0.453782 3.257179 -5.106072 -17.483522 10.418508 28.969889 0.000062 124.457890 -0.000042 -6.501920 -10.311429 -32.570297 -9.330664 13.788536 -6.175140 18.893739 -22.837135 7.898158 5.107448 -7.533405 0.625683 0.000002 -0.000000 0.000000 0.134988 1.366236 -11.285847 1.602988 -4.445621 39.639932 0.412172 -2.362616 19.788853 0.000004 -0.000002 0.000001 0.134989 1.366235 -11.285845 1.602967 -4.445610 39.639922 0.412164 -2.362645 19.788836 0.000001 0.000002 0.000001 0.134991 1.366233 -11.285847 1.602983 -4.445621 39.639925 0.412171 -2.362615 19.788851 0.000002 0.000003 0.000002 0.134988 1.366236 -11.285846 1.602988 -4.445627 39.639932 0.412166 -2.362613 19.788853 0.000001 0.000000 -0.000001 -57.881639 -0.708705 13.087115 37.759618 -0.935777 1.320909 3.706006 1.010184 -15.754256 -1.956113 0.000004 -0.000005 -0.000000 0.000000 0.000000 -39.364276 -7.559871 -32.494652 42.512515 2.821626 -2.586472 -18.192865 -6.784421 25.198359 -0.791082 0.000013 0.000012 0.000000 0.000002 0.000000 
-1.903034 79.805573 -1.306728 17.699674 -1.931318 4.696452 11.613739 1.482508 -0.656589 8.745001 0.976135 -0.410076 8.747835 0.967794 -0.427886 11.502871 3.193714 -7.842999 -31.036485 15.715166 1.526020 -0.000001 -0.000001 0.000001 2.407721 -6.126907 0.085083 -31.253525 1.998338 -40.952544 -0.000006 -119.339210 0.000006 6.471946 14.500326 43.540660 2.277046 -18.060697 8.747118 -1.498238 29.601463 12.459484 -2.171671 12.500523 7.939240 0.000000 0.000003 0.000001 0.424987 -2.385876 20.197308 0.470981 2.507212 -21.274294 0.118673 1.275522 -10.631989 -0.000003 -0.000000 -0.000001 0.425653 -2.387692 20.213308 0.471674 2.509013 -21.290308 0.118681 1.275520 -10.631992 -0.000002 0.000001 -0.000001 0.424987 -2.385876 20.197307 0.470980 2.507218 -21.274294 0.118678 1.275518 -10.631983 -0.000002 -0.000001 -0.000001 -0.991102 1.413190 20.695700 0.474944 -1.551227 -21.750941 0.118682 1.275525 -10.631989 -0.000002 -0.000000 0.000000 -0.457910 3.278821 -5.157644 -17.030848 10.654330 28.893637 -0.000008 124.088486 0.000002 -6.684494 -11.977407 -32.846308 -9.330648 13.788522 -6.175135 18.893734 -22.837132 7.898154 5.107449 -7.533404 0.625683 0.000001 -0.000000 -0.000000 0.134944 1.365929 -11.283061 1.603490 -4.446239 39.646608 0.412299 -2.362998 19.792176 -0.000000 -0.000002 0.000000 0.134945 1.365929 -11.283062 1.603483 -4.446238 39.646598 0.412316 -2.362994 19.792176 0.000000 0.000002 0.000003 0.134946 1.365932 -11.283064 1.603486 -4.446246 39.646601 0.412294 -2.362997 19.792176 -0.000000 -0.000003 0.000001 0.134944 1.365929 -11.283062 1.603493 -4.446244 39.646608 0.412300 -2.362993 19.792176 0.000001 -0.000000 -0.000003 -57.564793 -0.657637 13.196802 37.464520 -0.955556 1.429825 3.813567 1.009383 -15.851894 -1.981630 0.000003 0.000001 -0.000000 -0.000000 -0.000000 -39.189331 -7.850048 -32.377999 42.287347 2.836234 -2.437826 -18.103573 -6.699878 24.954861 -0.775618 -0.000002 0.000001 -0.000000 -0.000002 -0.000000 
-2.035851 79.872009 -1.301821 17.536891 -2.015304 4.605621 11.505106 1.530682 -0.587129 8.659213 0.987940 -0.398602 8.661556 0.982708 -0.417703 11.303552 3.230313 -7.986141 -31.353946 15.804866 1.569228 -0.000001 0.000002 -0.000001 2.460737 -6.377633 -0.383125 -31.049569 2.205685 -40.231518 -0.000011 -119.133334 -0.000005 6.985437 14.969756 43.456577 2.269661 -18.061660 8.747077 -1.498235 29.601463 12.459485 -2.171676 12.500526 7.939242 0.000001 -0.000001 0.000000 0.424989 -2.385876 20.197307 0.470978 2.507213 -21.274292 0.118680 1.275519 -10.631989 0.000002 0.000000 -0.000001 0.425654 -2.387693 20.213306 0.471673 2.509019 -21.290308 0.118680 1.275519 -10.631994 0.000003 -0.000000 -0.000000 0.424992 -2.385878 20.197308 0.470976 2.507216 -21.274291 0.118676 1.275516 -10.631983 -0.000002 0.000001 -0.000001 -0.991099 1.413189 20.695700 0.474945 -1.551227 -21.750947 0.118679 1.275525 -10.631985 -0.000004 0.000000 -0.000000 -0.461398 3.294613 -5.198282 -16.502480 10.930664 28.771216 -0.000000 123.630194 0.000006 -6.678474 -12.917740 -33.113338 -9.330680 13.788531 -6.175131 18.893732 -22.837135 7.898157 5.107447 -7.533405 0.625683 0.000001 -0.000001 0.000000 0.134867 1.365591 -11.280433 1.603973 -4.446844 39.652943 0.412442 -2.363371 19.795352 0.000002 0.000002 -0.000000 0.134868 1.365590 -11.280431 1.603978 -4.446845 39.652943 0.412427 -2.363378 19.795348 -0.000000 0.000003 0.000002 0.134874 1.365581 -11.280442 1.603962 -4.446841 39.652943 0.412437 -2.363369 19.795348 0.000001 0.000000 -0.000000 0.134867 1.365591 -11.280431 1.603977 -4.446849 39.652936 0.412440 -2.363366 19.795350 0.000001 -0.000002 0.000000 -57.298860 -0.703551 13.302850 37.373289 -0.894119 1.618707 3.835847 1.027736 -16.058543 -2.006610 0.000001 -0.000001 -0.000000 0.000000 -0.000000 -39.017729 -8.019838 -32.176727 42.220278 2.953485 -2.402764 -18.155626 -6.646517 24.735090 -0.796267 -0.000032 -0.000006 -0.000000 -0.000000 -0.000000 
-2.179273 79.862999 -1.314190 17.323952 -2.144376 4.520635 11.409316 1.560902 -0.559427 8.579002 0.996187 -0.399964 8.580971 0.992867 -0.420209 11.129655 3.259231 -8.082093 -31.667352 15.894707 1.589861 -0.000001 -0.000001 0.000001 2.511943 -6.614901 -0.691583 -30.957918 2.503189 -39.678830 -0.000032 -118.947389 -0.000029 7.418725 15.364934 43.375980 2.274113 -18.060970 8.747131 -1.498242 29.601466 12.459488 -2.171677 12.500529 7.939239 0.000000 -0.000001 0.000000 0.424988 -2.385879 20.197305 0.470979 2.507209 -21.274292 0.118678 1.275520 -10.631987 -0.000002 0.000000 -0.000002 0.425652 -2.387694 20.213311 0.471672 2.509015 -21.290309 0.118683 1.275521 -10.631995 0.000000 0.000001 0.000000 0.424988 -2.385879 20.197305 0.470979 2.507214 -21.274294 0.118679 1.275516 -10.631985 0.000004 -0.000001 -0.000001 -0.991102 1.413189 20.695700 0.474945 -1.551224 -21.750946 0.118681 1.275523 -10.631990 -0.000002 -0.000000 0.000001 -0.455531 3.298869 -5.169055 -15.979595 11.206108 28.609075 0.000031 123.114119 -0.000008 -6.304917 -12.871150 -33.321423 -9.330679 13.788527 -6.175125 18.893732 -22.837134 7.898158 5.107455 -7.533404 0.625683 -0.000001 0.000000 0.000000 0.134846 1.365447 -11.279192 1.604219 -4.447111 39.656007 0.412519 -2.363537 19.796837 -0.000002 -0.000001 -0.000002 0.134847 1.365447 -11.279192 1.604221 -4.447111 39.656007 0.412525 -2.363537 19.796839 -0.000001 0.000001 0.000001 0.134841 1.365448 -11.279184 1.604219 -4.447113 39.656007 0.412514 -2.363535 19.796839 -0.000001 -0.000002 -0.000003 0.134846 1.365447 -11.279192 1.604221 -4.447115 39.656007 0.412515 -2.363531 19.796839 -0.000001 -0.000001 -0.000001 -57.053359 -0.825313 13.402289 37.442544 -0.752816 1.891000 3.798924 1.058496 -16.371461 -2.025925 0.000001 -0.000001 -0.000000 0.000000 0.000000 -38.838204 -8.053561 -31.911043 42.313978 3.047304 -2.453086 -18.287611 -6.622873 24.574020 -0.835343 -0.000003 -0.000004 -0.000000 -0.000002 -0.000000 
